#!OML:ASF F:\VICON\USERDATA\INSTALL\rory3\rory3.ASF
:FULLY-SPECIFIED
:DEGREES
203
root 1.3998030140437088 17.96588193329703 48.108933328588165 -3.3570721849369445 0.5660865330804149 -1.3071004371240875
lfemur 5.881049586464698 -3.595977086891224 -21.51725580899068
ltibia 51.45171855852674
lfoot -16.98363797123942 -1.9294802494838832
ltoes -19.527624791608304
rfemur -12.480421227712647 1.8607450052826482 25.702765954687777
rtibia 18.49791771423793
rfoot 0.07989364322908443 -7.494144236178049
rtoes 1.6259877399549816
lowerback 10.068338667787284 -1.3833371494928919 -0.14333589630938814
upperback -0.28083578519432206 -1.8092983811578411 2.222141649644973
thorax -5.887378644662957 -0.9109097507650323 3.5000067657070155
lowerneck -16.58383986805673 -3.295730462296897 -1.7564805023256977
upperneck 21.79548275741479 -4.428658214537495 0.791366351935639
head 9.73070806837478 -2.1034408131615465 -0.011320560253422735
lclavicle -2.700307951834085e-15 -2.151714706259865e-15
lhumerus -29.858831130350406 2.9499185173316116 81.61718117571861
lradius 24.48901990164218
lwrist 11.272663853847527
lhand -29.889646699822276 19.87266892226803
lfingers 7.125020000000001
lthumb -3.098761944097637 50.29556235525291
rclavicle -2.7003079517725056e-15 -2.1517147062174127e-15
rhumerus -32.551220343137715 -19.575812793060518 -76.76455748288134
rradius 25.743394079897275
rwrist 5.2343491506888356
rhand -18.106644862713352 22.238863717303122
rfingers 7.125020000000001
rthumb 8.077490367797873 -6.684823289738611
204
root 1.3759646033407207 17.947715141215646 48.27860299333619 -3.5720966151392464 0.4921319770807524 -1.2701671241047188
lfemur 4.943300669222738 -3.4405898360765983 -21.323498200836507
ltibia 52.41115207285327
lfoot -16.611487740354363 -2.1823012682539598
ltoes -16.734123424561602
rfemur -12.648118431934831 1.8204123769305747 25.57140571991409
rtibia 19.40321189384383
rfoot -0.042882920486009724 -7.668722358645114
rtoes 3.007767936625226
lowerback 10.13825187023094 -1.297527146138937 -0.24659528332137348
upperback -0.22169523967837443 -1.7228941754541018 2.214717936064331
thorax -5.899394119093323 -0.8699095573333837 3.4079657799350898
lowerneck -16.616734106818065 -3.2999624329467183 -1.7486561597559556
upperneck 21.709449536570222 -4.448457078547843 0.8399612610686086
head 9.687724751218882 -2.1102402899661783 0.0007803552930119029
lclavicle -2.700307951830127e-15 -2.1517147062571098e-15
lhumerus -29.840712755714293 3.1124334148888178 81.71264516632974
lradius 24.2623754983446
lwrist 11.341908494229141
lhand -29.9176172580265 19.898728066882136
lfingers 7.125020000000001
lthumb -3.1828493384970145 50.21800127106103
rclavicle -2.700307951770518e-15 -2.1517147062159683e-15
rhumerus -32.8182087329737 -19.88515416625583 -76.83311937334432
rradius 25.729235444628678
rwrist 5.512484958290349
rhand -18.062481260994126 22.20140210038803
rfingers 7.125020000000001
rthumb 8.20171045811346 -6.541593795220855
205
root 1.3555086102103953 17.9344225270783 48.0714270713856 -3.6276471170356346 0.49320870080381496 -1.4984639041230965
lfemur 4.389637777471949 -3.2260439467615885 -20.792232019884448
ltibia 53.26505549431779
lfoot -16.511897782366223 -2.476480079974225
ltoes -12.353124861102016
rfemur -12.880349088497168 1.794670578925214 25.611209121059403
rtibia 20.138036529690915
rfoot 0.0614157648329563 -7.826034548395947
rtoes 2.664381862901841
lowerback 10.222952921781326 -1.2523378688843747 -0.1607406097862396
upperback -0.1971200557339205 -1.6390254463047331 2.2125943614206003
thorax -5.916548040496875 -0.813387738876524 3.3500922997533698
lowerneck -16.611332617109937 -3.303191111317827 -1.7503535429923525
upperneck 21.641385417623262 -4.44541536897256 0.8547634224642675
head 9.632704419320023 -2.1127609592361667 0.014400187827633776
lclavicle -2.7003079518295135e-15 -2.1517147062566925e-15
lhumerus -29.904605834786352 3.119637466891127 81.80673587822992
lradius 24.11509334995313
lwrist 11.02167066841616
lhand -29.860190180177366 19.89130340947086
lfingers 7.125020000000001
lthumb -3.0732306253168122 50.40169144708362
rclavicle -2.700307951767594e-15 -2.1517147062139117e-15
rhumerus -33.131839640402916 -20.25143120579888 -76.94669561154231
rradius 25.706857720307855
rwrist 5.336614033552434
rhand -18.0588447587071 22.092362020144193
rfingers 7.125020000000001
rthumb 8.16440866420233 -6.779295927764187
206
root 1.3452636607819735 17.910693385277167 48.20316137724784 -3.889569102261948 0.47581081386541957 -1.156411392930108
lfemur 4.120658282876779 -3.0358636147821794 -20.777309114726197
ltibia 53.98665626306759
lfoot -16.02137279750235 -2.7152373733328456
ltoes -11.88749886995156
rfemur -13.25491174197536 1.638955559148786 25.17967693087504
rtibia 21.361222281761034
rfoot 0.13733456682879996 -8.025584331473384
rtoes 4.66151828566927
lowerback 10.30649538945748 -1.1878273449651369 -0.4437125469480606
upperback -0.14318960223756744 -1.6159057630609743 2.1696168911059313
thorax -5.898440611724843 -0.7950584573628328 3.332366375867559
lowerneck -16.655102410900994 -3.306250785713379 -1.7189313184418096
upperneck 21.57518775539307 -4.462783669232799 0.9144846979019203
head 9.62025622991604 -2.118239492347149 0.0215931816100898
lclavicle -2.70030795183211e-15 -2.15171470625841e-15
lhumerus -29.83886964722238 3.3079488103464816 81.88724282257908
lradius 23.847278715888795
lwrist 10.860935649984935
lhand -29.956617304076175 19.82615218135976
lfingers 7.125020000000001
lthumb -3.2168446307065457 50.26009536444918
rclavicle -2.700307951775721e-15 -2.1517147062193774e-15
rhumerus -33.359462853917215 -20.63751614529635 -76.94168183524431
rradius 25.680085496417743
rwrist 5.378701637719319
rhand -18.071989526780364 21.95254984197195
rfingers 7.125020000000001
rthumb 8.184629172750236 -6.89307630814902
207
root 1.324801616370113 17.892904086914164 48.82204839891611 -3.9860937659087465 0.4652987868974663 -0.9918721407828552
lfemur 3.8073146646416163 -2.852921574726673 -20.62884473540813
ltibia 54.4276250576542
lfoot -15.964580357577198 -3.108144006908985
ltoes -10.190320778915822
rfemur -13.731546492447869 1.486805448021825 24.861303376292696
rtibia 22.2425002253126
rfoot 0.2413036891022351 -8.218683318496083
rtoes 5.385585034538813
lowerback 10.389216649435857 -1.1440485172345427 -0.6654367421139168
upperback -0.11138036695926669 -1.5690529501945767 2.1377290449575277
thorax -5.9612752111080765 -0.7840719593135357 3.208087324454655
lowerneck -16.616853436487556 -3.305307494997671 -1.707145833359303
upperneck 21.470816465871955 -4.456588983816663 0.967261270379956
head 9.546632745943048 -2.1176786956226086 0.04987053173478001
lclavicle -2.7003079518261647e-15 -2.151714706254368e-15
lhumerus -29.948211807297447 3.265223070456269 81.95380629185067
lradius 23.615479655378934
lwrist 10.749157312146021
lhand -29.95612792598033 19.69929645985167
lfingers 7.125020000000001
lthumb -3.200798383941617 50.201688132427506
rclavicle -2.700307951770989e-15 -2.1517147062161545e-15
rhumerus -33.41336073224521 -20.969754829034493 -76.90513325856571
rradius 25.655378452170954
rwrist 5.3397566228252735
rhand -18.011046316673923 21.93602557133845
rfingers 7.125020000000001
rthumb 8.183279789897357 -7.02760574861286
